# xmcd
#
# Track frame offsets: 
#        150
#        20701
#        37441
#        59308
#        74661
#        89904
#        105657
#        121478
#        139694
#        159293
#        177541
#
# Disc length: 2674 seconds
#
# Revision: 0
# Processed by: cddbd v1.5.2PL0 Copyright (c) Steve Scherf et al.
# Submitted via: ExactAudioCopy v1.3
#
DISCID=aa0a700b
DTITLE=Boo Boo Davis - Tree Man
DYEAR=2019
DGENRE=Blues
TTITLE0=Dirt Road
TTITLE1=Big House All By Myself #2
TTITLE2=Stay Out All Night Long
TTITLE3=She Won't Call Me On The Telephone
TTITLE4=Oh Baby
TTITLE5=Bring My Baby Back Home
TTITLE6=Tree Man
TTITLE7=What The Blues Is About
TTITLE8=Chocolate
TTITLE9=What's The Matter With You Baby
TTITLE10=I'm Getting Old
EXTD=
EXTT0=
EXTT1=
EXTT2=
EXTT3=
EXTT4=
EXTT5=
EXTT6=
EXTT7=
EXTT8=
EXTT9=
EXTT10=
PLAYORDER=
